HIERARCHY
ROOT hip
{
  OFFSET 0 0 0
  CHANNELS 6 Xposition Yposition Zposition Zrotation Yrotation Xrotation
  JOINT abdomen
  {
    OFFSET 0 20.6881 -0.73152
    CHANNELS 3 Zrotation Xrotation Yrotation
    JOINT chest
    {
      OFFSET 0 11.7043 -0.48768
      CHANNELS 3 Zrotation Xrotation Yrotation
      JOINT neck
      {
        OFFSET 0 22.1894 -2.19456
        CHANNELS 3 Zrotation Xrotation Yrotation
        JOINT head
        {
          OFFSET -0.24384 7.07133 1.2192
          CHANNELS 3 Zrotation Xrotation Yrotation
          JOINT leftEye
          {
            OFFSET 4.14528 8.04674 8.04672
            CHANNELS 3 Zrotation Xrotation Yrotation
            End Site
            {
              OFFSET 1 0 0
            }
          }
          JOINT rightEye
          {
            OFFSET -3.6576 8.04674 8.04672
            CHANNELS 3 Zrotation Xrotation Yrotation
            End Site
            {
              OFFSET 1 0 0
            }
          }
        }
      }
      JOINT rCollar
      {
        OFFSET -2.68224 19.2634 -4.8768
        CHANNELS 3 Zrotation Xrotation Yrotation
        JOINT rShldr
        {
          OFFSET -8.77824 -1.95073 1.46304
          CHANNELS 3 Zrotation Xrotation Yrotation
          JOINT rForeArm
          {
            OFFSET -28.1742 -1.7115 0.48768
            CHANNELS 3 Zrotation Xrotation Yrotation
            JOINT rHand
            {
              OFFSET -22.5879 0.773209 7.07136
              CHANNELS 3 Zrotation Xrotation Yrotation
              JOINT rThumb1
              {
                OFFSET -1.2192 -0.487915 3.41376
                CHANNELS 3 Zrotation Xrotation Yrotation
                JOINT rThumb2
                {
                  OFFSET -3.37035 -0.52449 3.41376
                  CHANNELS 3 Zrotation Xrotation Yrotation
                  End Site
                  {
                    OFFSET -1.78271 -1.18214 1.43049
                  }
                }
              }
              JOINT rIndex1
              {
                OFFSET -7.75947 0.938293 5.60832
                CHANNELS 3 Zrotation Xrotation Yrotation
                JOINT rIndex2
                {
                  OFFSET -2.54057 -0.884171 1.56538
                  CHANNELS 3 Zrotation Xrotation Yrotation
                  End Site
                  {
                    OFFSET -1.62519 -0.234802 1.16502
                  }
                }
              }
              JOINT rMid1
              {
                OFFSET -8.24714 1.18213 3.41376
                CHANNELS 3 Zrotation Xrotation Yrotation
                JOINT rMid2
                {
                  OFFSET -3.10165 -0.590103 1.0647
                  CHANNELS 3 Zrotation Xrotation Yrotation
                  End Site
                  {
                    OFFSET -2.48547 -0.328903 0.83742
                  }
                }
              }
              JOINT rRing1
              {
                OFFSET -8.82822 0.546677 1.51678
                CHANNELS 3 Zrotation Xrotation Yrotation
                JOINT rRing2
                {
                  OFFSET -2.60934 -0.819778 -0.0198488
                  CHANNELS 3 Zrotation Xrotation Yrotation
                  End Site
                  {
                    OFFSET -2.33842 -0.294052 0.168128
                  }
                }
              }
              JOINT rPinky1
              {
                OFFSET -8.27202 -0.0477905 -0.4584
                CHANNELS 3 Zrotation Xrotation Yrotation
                JOINT rPinky2
                {
                  OFFSET -1.82734 -0.647385 -0.700984
                  CHANNELS 3 Zrotation Xrotation Yrotation
                  End Site
                  {
                    OFFSET -1.69225 -0.51767 -0.607171
                  }
                }
              }
            }
          }
        }
      }
      JOINT lCollar
      {
        OFFSET 2.68224 19.2634 -4.8768
        CHANNELS 3 Zrotation Xrotation Yrotation
        JOINT lShldr
        {
          OFFSET 8.77824 -1.95073 1.46304
          CHANNELS 3 Zrotation Xrotation Yrotation
          JOINT lForeArm
          {
            OFFSET 28.1742 -1.7115 0.48768
            CHANNELS 3 Zrotation Xrotation Yrotation
            JOINT lHand
            {
              OFFSET 22.5879 0.773209 7.07136
              CHANNELS 3 Zrotation Xrotation Yrotation
              JOINT lThumb1
              {
                OFFSET 1.2192 -0.487915 3.41376
                CHANNELS 3 Zrotation Xrotation Yrotation
                JOINT lThumb2
                {
                  OFFSET 3.37035 -0.52449 3.41376
                  CHANNELS 3 Zrotation Xrotation Yrotation
                  End Site
                  {
                    OFFSET 1.78271 -1.18214 1.43049
                  }
                }
              }
              JOINT lIndex1
              {
                OFFSET 7.75947 0.938293 5.60832
                CHANNELS 3 Zrotation Xrotation Yrotation
                JOINT lIndex2
                {
                  OFFSET 2.54057 -0.884171 1.56538
                  CHANNELS 3 Zrotation Xrotation Yrotation
                  End Site
                  {
                    OFFSET 1.62519 -0.234802 1.16502
                  }
                }
              }
              JOINT lMid1
              {
                OFFSET 8.24714 1.18213 3.41376
                CHANNELS 3 Zrotation Xrotation Yrotation
                JOINT lMid2
                {
                  OFFSET 3.10165 -0.590103 1.0647
                  CHANNELS 3 Zrotation Xrotation Yrotation
                  End Site
                  {
                    OFFSET 2.48547 -0.328903 0.83742
                  }
                }
              }
              JOINT lRing1
              {
                OFFSET 8.82822 0.546677 1.51678
                CHANNELS 3 Zrotation Xrotation Yrotation
                JOINT lRing2
                {
                  OFFSET 2.60934 -0.819778 -0.0198488
                  CHANNELS 3 Zrotation Xrotation Yrotation
                  End Site
                  {
                    OFFSET 2.33842 -0.294052 0.168128
                  }
                }
              }
              JOINT lPinky1
              {
                OFFSET 8.27202 -0.0477905 -0.4584
                CHANNELS 3 Zrotation Xrotation Yrotation
                JOINT lPinky2
                {
                  OFFSET 1.82734 -0.647385 -0.700984
                  CHANNELS 3 Zrotation Xrotation Yrotation
                  End Site
                  {
                    OFFSET 1.69225 -0.51767 -0.607171
                  }
                }
              }
            }
          }
        }
      }
    }
  }
  JOINT rButtock
  {
    OFFSET -8.77824 4.35084 1.2192
    CHANNELS 3 Zrotation Xrotation Yrotation
    JOINT rThigh
    {
      OFFSET 0 -1.70687 -2.19456
      CHANNELS 3 Zrotation Xrotation Yrotation
      JOINT rShin
      {
        OFFSET 0 -36.8199 0.73152
        CHANNELS 3 Zrotation Xrotation Yrotation
        JOINT rFoot
        {
          OFFSET 0.73152 -45.1104 -5.12064
          CHANNELS 3 Zrotation Xrotation Yrotation
          End Site
          {
            OFFSET -1.1221 -3.69964 12.103
          }
        }
      }
    }
  }
  JOINT lButtock
  {
    OFFSET 8.77824 4.35084 1.2192
    CHANNELS 3 Zrotation Xrotation Yrotation
    JOINT lThigh
    {
      OFFSET 0 -1.70687 -2.19456
      CHANNELS 3 Zrotation Xrotation Yrotation
      JOINT lShin
      {
        OFFSET 0 -36.8199 0.73152
        CHANNELS 3 Zrotation Xrotation Yrotation
        JOINT lFoot
        {
          OFFSET -0.73152 -45.1104 -5.12064
          CHANNELS 3 Zrotation Xrotation Yrotation
          End Site
          {
            OFFSET 1.1221 -3.69964 12.103
          }
        }
      }
    }
  }
}
MOTION
Frames:	6
Frame Time:	0.00833333
46.3097 72.6922 173.22 0.0 0.0 0.0 1.03664 -0.00435531 0.0286368 0.28598 -0.00424595 0.0495441 -7.20796e-15 0.0 -2.73329e-16 -2.16271e-14 3.18055e-15 -8.09116e-16 -0.0 0.0 0.0 -0.0 0.0 0.0 -3.57945e-15 2.05773e-17 0.0 -7.44083e-14 6.95746e-16 -1.98785e-15 -1.30343e-12 4.06316e-13 -3.49861e-14 -1.49425e-11 -3.21683e-13 -5.56597e-13 -3.52459e-11 1.79875e-13 -1.26268e-12 -6.08782e-11 3.08514e-13 -2.17629e-12 -3.52409e-11 1.81689e-13 -1.26904e-12 7.73091 5.47488 0.417314 -3.52458e-11 1.80298e-13 -1.26586e-12 2.90554 0.965183 0.102902 -3.52395e-11 1.80099e-13 -1.2587e-12 10.2786 0.731801 0.0259123 -3.52547e-11 1.82484e-13 -1.24678e-12 2.22167 -0.733487 -0.20892 -3.67642e-15 1.94126e-17 -2.48481e-16 -7.83069e-14 5.15598e-16 -3.97569e-15 -1.30766e-12 -3.79679e-13 -4.77083e-14 -1.49521e-11 4.59168e-13 -5.31153e-13 -3.52679e-11 1.73791e-13 -1.25314e-12 -6.08953e-11 2.95792e-13 -2.15642e-12 -3.52716e-11 1.75328e-13 -1.2436e-12 -7.73091 5.47488 -0.417314 -3.52674e-11 1.74036e-13 -1.25314e-12 -2.90554 0.965183 -0.102902 -3.52714e-11 1.74135e-13 -1.25155e-12 -10.2786 0.731801 -0.0259123 -3.52604e-11 1.74533e-13 -1.26586e-12 -2.22167 -0.733487 0.20892 -2.03217e-16 0.0 -3.88251e-19 1.28603 -5.56117 -0.11319 0.000325541 4.51776 0.0282622 -0.50894 1.04204 0.0792225 2.03217e-16 0.0 3.88251e-19 0.292274 -1.91957 0.0122137 0.00924956 -2.07856 0.0763829 0.493364 3.99664 -0.13752
44.4631 70.4917 159.649 177.807 -9.1242 -178.858 1.03282 3.4944 -0.258128 -0.156124 -0.815582 -0.0708857 0.539319 -4.18639 1.71491 0.0551766 1.78295 3.01766 -0.0 0.0 0.0 -0.0 0.0 0.0 1.53326e-14 -1.59381e-14 -1.32957e-13 1.78624 -10.0703 14.0552 -11.5288 -8.44191 13.2021 0.00370475 1.36174 0.191191 2.90349e-10 7.5818e-10 3.07176e-10 5.02014e-10 1.30974e-09 5.29656e-10 2.90353e-10 7.5818e-10 3.07172e-10 7.73091 5.47488 0.417314 2.90349e-10 7.58179e-10 3.07173e-10 2.90554 0.965183 0.102902 2.90358e-10 7.58179e-10 3.0718e-10 10.2786 0.731801 0.0259123 2.90341e-10 7.58181e-10 3.07191e-10 2.22167 -0.733487 -0.20892 1.52183e-14 -1.59381e-14 -1.33181e-13 -0.996974 -8.56556 -14.3722 12.4069 -9.38026 -13.6233 -0.00154337 0.872389 -0.122555 3.97913e-10 -2.50286e-10 -1.24317e-10 6.87587e-10 -4.32734e-10 -2.15512e-10 3.9791e-10 -2.50281e-10 -1.24311e-10 -7.73091 5.47488 -0.417314 3.97913e-10 -2.50283e-10 -1.24324e-10 -2.90554 0.965183 -0.102902 3.97911e-10 -2.50286e-10 -1.24319e-10 -10.2786 0.731801 -0.0259123 3.97922e-10 -2.50284e-10 -1.24331e-10 -2.22167 -0.733487 0.20892 -2.03217e-16 0.0 -3.88251e-19 -4.00976 -11.7249 -4.61817 0.0898287 17.9317 0.291944 -0.995255 -3.45347 -4.89287 2.03217e-16 0.0 3.88251e-19 3.34481 -10.2448 1.13675 -0.0596381 12.5314 -0.161393 0.544458 -1.00248 1.76371
44.4592 70.5516 159.653 177.815 -9.1734 -178.843 1.06613 7.19328 -0.564204 -0.625317 -1.67293 -0.198099 1.38003 -8.60356 3.55434 -0.082754 3.65648 6.21102 -0.0 0.0 0.0 -0.0 0.0 0.0 3.66357e-14 -3.45807e-14 -2.82212e-13 9.02863 -18.6556 30.1984 -19.4726 -15.8074 27.9835 -0.00228305 2.78082 0.390802 6.53217e-10 1.61618e-09 6.5772e-10 1.12936e-09 2.79195e-09 1.13409e-09 6.53219e-10 1.61617e-09 6.57718e-10 7.73091 5.47488 0.417314 6.53215e-10 1.61617e-09 6.57717e-10 2.90554 0.965183 0.102902 6.53228e-10 1.61617e-09 6.57724e-10 10.2786 0.731801 0.0259123 6.53209e-10 1.61618e-09 6.57734e-10 2.22167 -0.733487 -0.20892 3.65008e-14 -3.45795e-14 -2.82411e-13 -6.64027 -15.8034 -30.5007 20.6436 -17.4628 -29.0872 0.00088259 1.78993 -0.25155 8.90078e-10 -5.19262e-10 -2.70938e-10 1.53798e-09 -8.9772e-10 -4.69685e-10 8.90075e-10 -5.19253e-10 -2.70934e-10 -7.73091 5.47488 -0.417314 8.90077e-10 -5.19256e-10 -2.70952e-10 -2.90554 0.965183 -0.102902 8.90077e-10 -5.19262e-10 -2.70942e-10 -10.2786 0.731801 -0.0259123 8.90088e-10 -5.19259e-10 -2.70952e-10 -2.22167 -0.733487 0.20892 -2.03217e-16 0.0 -3.88251e-19 -10.7107 -18.076 -9.66511 0.0270908 32.1179 0.639546 -2.36056 -8.10336 -10.2323 2.03217e-16 0.0 3.88251e-19 6.94777 -19.0344 2.42236 0.0134323 27.9819 -0.458479 0.960844 -6.27679 3.79656
44.4462 70.6112 159.662 177.774 -9.2216 -178.804 1.13172 10.4909 -0.844332 -1.05057 -2.43822 -0.312006 2.3842 -12.5136 5.25621 -0.397333 5.28941 9.08761 -0.0 0.0 0.0 -0.0 0.0 0.0 5.31567e-14 -4.78554e-14 -3.98872e-13 19.6459 -22.7744 45.9465 -23.3795 -19.8705 42.191 -0.0162084 4.08503 0.574871 9.4154e-10 2.27418e-09 9.24054e-10 1.6278e-09 3.92861e-09 1.59332e-09 9.4154e-10 2.27418e-09 9.24053e-10 7.73091 5.47488 0.417314 9.41538e-10 2.27418e-09 9.2405e-10 2.90554 0.965183 0.102902 9.41553e-10 2.27418e-09 9.24057e-10 10.2786 0.731801 0.0259123 9.41532e-10 2.27418e-09 9.24067e-10 2.22167 -0.733487 -0.20892 5.30079e-14 -4.78532e-14 -3.99046e-13 -15.1015 -19.1759 -45.8063 24.3227 -21.6529 -44.1134 0.00657594 2.61712 -0.368006 1.26428e-09 -7.51205e-10 -3.70446e-10 2.18455e-09 -1.29879e-09 -6.42222e-10 1.26427e-09 -7.51193e-10 -3.70444e-10 -7.73091 5.47488 -0.417314 1.26427e-09 -7.51197e-10 -3.70465e-10 -2.90554 0.965183 -0.102902 1.26427e-09 -7.51205e-10 -3.70453e-10 -10.2786 0.731801 -0.0259123 1.26429e-09 -7.51201e-10 -3.70461e-10 -2.22167 -0.733487 0.20892 -2.03217e-16 0.0 -3.88251e-19 -17.7119 -23.4721 -14.5683 -0.236357 44.7552 1.09412 -4.32313 -12.0613 -15.1526 2.03217e-16 0.0 3.88251e-19 10.5329 -26.8521 3.73464 0.261183 41.7485 -0.838144 1.65327 -10.9497 5.66821
44.4491 70.6584 159.672 177.785 -9.2298 -178.757 1.20253 12.7864 -1.04749 -1.35878 -2.97341 -0.392395 3.25271 -15.1988 6.50818 -0.755851 6.37724 11.139 -0.0 0.0 0.0 -0.0 0.0 0.0 5.77224e-14 -4.77101e-14 -4.34046e-13 28.661 -22.9959 57.0564 -24.8787 -20.838 52.523 -0.0320349 5.10222 0.718991 1.0435e-09 2.4322e-09 9.79862e-10 1.80398e-09 4.20141e-09 1.68954e-09 1.0435e-09 2.4322e-09 9.79862e-10 7.73091 5.47488 0.417314 1.0435e-09 2.4322e-09 9.79859e-10 2.90554 0.965183 0.102902 1.04352e-09 2.4322e-09 9.79864e-10 10.2786 0.731801 0.0259123 1.04349e-09 2.4322e-09 9.79872e-10 2.22167 -0.733487 -0.20892 5.75765e-14 -4.77075e-14 -4.34195e-13 -22.2835 -19.2336 -56.5 25.5448 -22.3181 -54.9537 0.0127209 3.21844 -0.452803 1.34355e-09 -8.90563e-10 -3.5217e-10 2.32158e-09 -1.54009e-09 -6.10666e-10 1.34355e-09 -8.9055e-10 -3.5217e-10 -7.73091 5.47488 -0.417314 1.34355e-09 -8.90556e-10 -3.52192e-10 -2.90554 0.965183 -0.102902 1.34355e-09 -8.90563e-10 -3.52179e-10 -10.2786 0.731801 -0.0259123 1.34356e-09 -8.90559e-10 -3.52186e-10 -2.22167 -0.733487 0.20892 -2.03217e-16 0.0 -3.88251e-19 -23.1997 -27.0097 -18.2814 -0.622832 53.5242 1.58242 -6.11116 -14.6602 -18.7129 2.03217e-16 0.0 3.88251e-19 13.2739 -32.2807 4.79099 0.609384 51.3078 -1.24536 2.31974 -14.1715 7.02178
44.4447 70.7075 159.68 177.774 -9.2588 -178.717 1.24382 13.6774 -1.13436 -1.50125 -3.18708 -0.42584 3.68397 -16.1981 7.05787 -1.00713 6.73687 12.0171 -0.0 0.0 0.0 -0.0 0.0 0.0 4.14635e-14 -2.36703e-14 -3.46199e-13 32.7398 -22.4743 61.2471 -25.3974 -20.9118 56.9331 -0.0428023 5.73361 0.808677 8.76194e-10 1.79813e-09 6.92098e-10 1.51444e-09 3.10545e-09 1.19325e-09 8.76194e-10 1.79813e-09 6.92098e-10 7.73091 5.47488 0.417314 8.76195e-10 1.79813e-09 6.92098e-10 2.90554 0.965183 0.102902 8.76207e-10 1.79813e-09 6.92096e-10 10.2786 0.731801 0.0259123 8.76189e-10 1.79813e-09 6.92102e-10 2.22167 -0.733487 -0.20892 4.13556e-14 -2.36688e-14 -3.46317e-13 -25.4544 -18.7018 -60.5067 25.9455 -22.1497 -59.4323 0.0159984 3.49572 -0.491949 9.73839e-10 -9.45237e-10 -1.28011e-10 1.6829e-09 -1.63551e-09 -2.22523e-10 9.73836e-10 -9.45227e-10 -1.2801e-10 -7.73091 5.47488 -0.417314 9.73838e-10 -9.45236e-10 -1.28031e-10 -2.90554 0.965183 -0.102902 9.73837e-10 -9.45237e-10 -1.28021e-10 -10.2786 0.731801 -0.0259123 9.73849e-10 -9.45232e-10 -1.28028e-10 -2.22167 -0.733487 0.20892 -2.03217e-16 0.0 -3.88251e-19 -25.4678 -28.3158 -19.7903 -0.845684 56.8762 1.83772 -6.90867 -15.625 -20.1582 2.03217e-16 0.0 3.88251e-19 14.3875 -34.3915 5.2288 0.807828 54.9731 -1.45911 2.61624 -15.4011 7.55341
